<svg xmlns="http://www.w3.org/2000/svg" viewBox="0 0 100 100">
  <path d="M50,10 C65,10 75,20 75,35 C75,45 70,50 65,55 C75,60 80,70 80,80 C80,90 70,95 50,95 C30,95 20,90 20,80 C20,70 25,60 35,55 C30,50 25,45 25,35 C25,20 35,10 50,10Z" fill="none" stroke="currentColor" stroke-width="2"/>
  <circle cx="40" cy="30" r="3" fill="currentColor"/>
  <circle cx="60" cy="30" r="3" fill="currentColor"/>
  <path d="M45,38 C45,38 50,42 55,38" fill="none" stroke="currentColor" stroke-width="2"/>
  <path d="M30,50 C30,50 50,60 70,50" fill="none" stroke="currentColor" stroke-width="2"/>
  <path d="M25,65 C25,65 50,75 75,65" fill="none" stroke="currentColor" stroke-width="2"/>
  <path d="M25,80 C25,80 50,90 75,80" fill="none" stroke="currentColor" stroke-width="2"/>
</svg> 